<?xml version="1.0" standalone="no"?>
<!DOCTYPE svg PUBLIC "-//W3C//DTD SVG 20010904//EN"
 "http://www.w3.org/TR/2001/REC-SVG-20010904/DTD/svg10.dtd">
<svg version="1.0" xmlns="http://www.w3.org/2000/svg"
 width="478.000000pt" height="215.000000pt" viewBox="0 0 478.000000 215.000000"
 preserveAspectRatio="xMidYMid meet">
<metadata>
Created by potrace 1.16, written by Peter Selinger 2001-2019
</metadata>
<g transform="translate(0.000000,215.000000) scale(0.100000,-0.100000)"
fill="#000000" stroke="none">
<path d="M4208 1618 l-3 -523 -235 0 -235 0 -5 395 c-3 217 -7 396 -8 398 -1
1 -120 1 -264 0 l-263 -3 -5 -395 -5 -395 -252 -3 -253 -2 -2 262 -3 263 -265
0 -265 0 -5 -260 -5 -260 -250 0 -250 0 -5 395 -5 395 -265 0 -265 0 -5 -395
-5 -395 -250 0 -250 0 -5 515 -5 515 -280 0 -280 0 0 -1055 0 -1055 280 0 280
0 3 523 2 522 253 -2 252 -3 3 -388 2 -387 268 2 267 3 3 388 2 387 253 -2
252 -3 5 -260 5 -260 265 0 265 0 3 263 2 262 253 -2 252 -3 3 -388 2 -387
268 2 267 3 3 388 2 387 238 -2 237 -3 5 -515 5 -515 280 0 280 0 3 1058 2
1057 -285 0 -285 0 -2 -522z m-2618 -538 l0 -770 -232 2 -233 3 -3 755 c-1
415 0 761 3 768 3 9 60 12 235 12 l230 0 0 -770z m2100 0 l0 -770 -232 2 -233
3 -3 768 -2 767 235 0 235 0 0 -770z m-1050 -5 l0 -505 -235 0 -235 0 0 505 0
505 235 0 235 0 0 -505z"/>
</g>
</svg>
