<?xml version="1.0" standalone="no"?>
<!DOCTYPE svg PUBLIC "-//W3C//DTD SVG 20010904//EN"
 "http://www.w3.org/TR/2001/REC-SVG-20010904/DTD/svg10.dtd">
<svg version="1.0" xmlns="http://www.w3.org/2000/svg"
 width="478.000000pt" height="215.000000pt" viewBox="0 0 478.000000 215.000000"
 preserveAspectRatio="xMidYMid meet">
<metadata>
Created by potrace 1.16, written by Peter Selinger 2001-2019
</metadata>
<g transform="translate(0.000000,215.000000) scale(0.100000,-0.100000)"
fill="#000000" stroke="none">
<path d="M4215 2138 c-3 -7 -6 -245 -8 -528 l-2 -515 -237 -3 -238 -2 -2 397
-3 398 -265 0 -265 0 -5 -395 -5 -395 -252 -3 -253 -2 -2 262 -3 263 -267 3
-268 2 -2 -262 -3 -263 -252 -3 -253 -2 -2 397 -3 398 -265 0 -265 0 -5 -395
-5 -395 -253 -3 -252 -2 0 520 0 520 -285 0 -285 0 2 -1057 3 -1058 280 0 280
0 3 523 2 522 255 0 255 0 0 -390 0 -390 268 2 267 3 3 388 2 387 255 0 255 0
2 -262 3 -263 265 0 265 0 3 263 2 262 255 0 255 0 0 -390 0 -390 268 2 267 3
3 388 2 387 240 0 240 0 2 -517 3 -518 280 0 280 0 3 1054 c2 837 0 1056 -10
1063 -7 4 -134 8 -281 8 -205 0 -269 -3 -272 -12z m525 -1053 l0 -1025 -245 0
-245 0 0 1025 0 1025 245 0 245 0 0 -1025z m-3150 -5 l0 -770 -232 2 -233 3
-2 755 c-2 415 -1 761 2 768 3 9 60 12 235 12 l230 0 0 -770z m1050 -5 l0
-505 -235 0 -235 0 0 505 0 505 235 0 235 0 0 -505z"/>
</g>
</svg>
