<?xml version="1.0" standalone="no"?>
<!DOCTYPE svg PUBLIC "-//W3C//DTD SVG 20010904//EN"
 "http://www.w3.org/TR/2001/REC-SVG-20010904/DTD/svg10.dtd">
<svg version="1.0" xmlns="http://www.w3.org/2000/svg"
 width="478.000000pt" height="215.000000pt" viewBox="0 0 478.000000 215.000000"
 preserveAspectRatio="xMidYMid meet">
<metadata>
Created by potrace 1.16, written by Peter Selinger 2001-2019
</metadata>
<g transform="translate(0.000000,215.000000) scale(0.100000,-0.100000)"
fill="#000000" stroke="none">
<path d="M4210 1615 l0 -525 -240 0 -240 0 -2 393 -3 392 -267 3 -268 2 0
-395 0 -395 -255 0 -255 0 -2 263 -3 262 -270 0 -270 0 -3 -262 -2 -263 -250
0 -250 0 -2 393 -3 392 -267 3 -268 2 0 -395 0 -395 -255 0 -255 0 -2 518 -3
517 -280 0 -280 0 -3 -1054 c-2 -837 0 -1056 10 -1063 15 -9 519 -11 542 -2
14 5 16 62 16 530 l0 524 253 -2 252 -3 3 -388 2 -387 268 2 267 3 3 388 2
387 250 0 250 0 2 -262 3 -263 270 0 270 0 3 263 2 262 253 -2 252 -3 3 -388
2 -387 268 2 267 3 3 388 2 387 238 -2 237 -3 3 -517 2 -518 280 0 280 0 0
1060 0 1060 -280 0 -280 0 0 -525z m-3670 -550 l0 -1025 -245 0 -245 0 0 1025
0 1025 245 0 245 0 0 -1025z m1050 15 l0 -770 -235 0 -235 0 0 770 0 770 235
0 235 0 0 -770z m2100 0 l0 -770 -235 0 -235 0 0 770 0 770 235 0 235 0 0
-770z"/>
</g>
</svg>
