<?xml version="1.0" standalone="no"?>
<!DOCTYPE svg PUBLIC "-//W3C//DTD SVG 20010904//EN"
 "http://www.w3.org/TR/2001/REC-SVG-20010904/DTD/svg10.dtd">
<svg version="1.0" xmlns="http://www.w3.org/2000/svg"
 width="478.000000pt" height="214.000000pt" viewBox="0 0 478.000000 214.000000"
 preserveAspectRatio="xMidYMid meet">
<metadata>
Created by potrace 1.16, written by Peter Selinger 2001-2019
</metadata>
<g transform="translate(0.000000,214.000000) scale(0.100000,-0.100000)"
fill="#000000" stroke="none">
<path d="M4217 2133 c-4 -3 -7 -240 -7 -525 l0 -518 -240 0 -240 0 0 379 c0
209 -3 386 -6 395 -5 14 -39 16 -270 16 l-264 0 0 -395 0 -395 -255 0 -255 0
-2 258 -3 257 -267 3 -268 2 0 -260 0 -260 -255 0 -255 0 -2 393 -3 392 -265
0 -265 0 -3 -392 -2 -393 -255 0 -255 0 0 515 0 515 -22 5 c-13 3 -140 4 -283
3 l-260 -3 0 -1060 0 -1060 280 0 280 0 3 523 2 522 253 -2 252 -3 3 -388 2
-387 268 2 267 3 3 388 2 387 253 -2 252 -3 5 -260 5 -260 245 -3 c135 -1 255
0 268 3 l22 5 0 260 0 260 253 -2 252 -3 3 -388 2 -387 268 2 267 3 3 388 2
387 240 0 240 0 2 -517 3 -518 280 0 280 0 0 1060 0 1060 -276 3 c-151 1 -278
-1 -282 -5z m523 -1058 l0 -1025 -245 0 -245 0 0 1025 0 1025 245 0 245 0 0
-1025z m-3152 -2 l-3 -768 -230 0 -230 0 -3 755 c-1 415 0 761 3 768 3 9 60
12 235 12 l230 0 -2 -767z m2100 0 l-3 -768 -230 0 -230 0 -3 768 -2 767 235
0 235 0 -2 -767z"/>
</g>
</svg>
