<?xml version="1.0" standalone="no"?>
<!DOCTYPE svg PUBLIC "-//W3C//DTD SVG 20010904//EN"
 "http://www.w3.org/TR/2001/REC-SVG-20010904/DTD/svg10.dtd">
<svg version="1.0" xmlns="http://www.w3.org/2000/svg"
 width="477.000000pt" height="214.000000pt" viewBox="0 0 477.000000 214.000000"
 preserveAspectRatio="xMidYMid meet">
<metadata>
Created by potrace 1.16, written by Peter Selinger 2001-2019
</metadata>
<g transform="translate(0.000000,214.000000) scale(0.100000,-0.100000)"
fill="#000000" stroke="none">
<path d="M4207 2133 c-4 -3 -7 -240 -7 -525 l0 -518 -240 0 -240 0 -2 393 -3
392 -267 3 -268 2 0 -395 0 -395 -255 0 -255 0 -2 258 -3 257 -267 3 -268 2 0
-260 0 -260 -255 0 -255 0 -2 393 -3 392 -267 3 -268 2 0 -395 0 -395 -255 0
-255 0 -2 518 -3 517 -280 0 -280 0 0 -1060 0 -1060 280 0 280 0 3 523 2 522
255 0 255 0 0 -390 0 -390 268 2 267 3 3 388 2 387 255 0 255 0 0 -260 0 -260
270 0 270 0 0 260 0 260 255 0 255 0 0 -390 0 -390 268 2 267 3 3 388 2 387
240 0 240 0 0 -514 c0 -459 2 -515 16 -520 23 -9 527 -7 542 2 10 7 12 226 10
1063 l-3 1054 -276 3 c-151 1 -278 -1 -282 -5z m523 -1058 l0 -1025 -245 0
-245 0 0 1025 0 1025 245 0 245 0 0 -1025z m-4200 -10 l0 -1025 -245 0 -245 0
0 1025 0 1025 245 0 245 0 0 -1025z m1050 10 l0 -765 -230 0 -230 0 0 765 0
765 230 0 230 0 0 -765z m2100 0 l0 -765 -232 2 -233 3 -2 763 -3 762 235 0
235 0 0 -765z"/>
</g>
</svg>
