<?xml version="1.0" standalone="no"?>
<!DOCTYPE svg PUBLIC "-//W3C//DTD SVG 20010904//EN"
 "http://www.w3.org/TR/2001/REC-SVG-20010904/DTD/svg10.dtd">
<svg version="1.0" xmlns="http://www.w3.org/2000/svg"
 width="477.000000pt" height="215.000000pt" viewBox="0 0 477.000000 215.000000"
 preserveAspectRatio="xMidYMid meet">
<metadata>
Created by potrace 1.16, written by Peter Selinger 2001-2019
</metadata>
<g transform="translate(0.000000,215.000000) scale(0.100000,-0.100000)"
fill="#000000" stroke="none">
<path d="M4200 1615 l0 -525 -240 0 -240 0 0 395 0 395 -270 0 -270 0 -2 -392
-3 -393 -252 -3 -253 -2 -2 262 -3 263 -265 0 -265 0 -3 -262 -2 -263 -255 0
-255 0 0 395 0 395 -270 0 -270 0 -2 -392 -3 -393 -252 -3 -253 -2 0 520 0
520 -283 -2 -282 -3 0 -1055 0 -1055 282 -3 283 -2 0 525 0 525 255 0 255 0 0
-390 0 -390 270 0 270 0 0 390 0 390 255 0 255 0 2 -262 3 -263 265 0 265 0 3
263 2 262 255 0 255 0 0 -390 0 -390 270 0 270 0 0 390 0 390 240 0 240 0 2
-517 3 -518 280 0 280 0 3 1058 2 1057 -285 0 -285 0 0 -525z m-3670 -550 l0
-1025 -242 2 -243 3 -3 1023 -2 1022 245 0 245 0 0 -1025z m3150 15 l0 -770
-230 0 -230 0 0 770 0 770 230 0 230 0 0 -770z m-1050 -5 l0 -505 -235 0 -235
0 0 505 0 505 235 0 235 0 0 -505z"/>
</g>
</svg>
