<?xml version="1.0" standalone="no"?>
<!DOCTYPE svg PUBLIC "-//W3C//DTD SVG 20010904//EN"
 "http://www.w3.org/TR/2001/REC-SVG-20010904/DTD/svg10.dtd">
<svg version="1.0" xmlns="http://www.w3.org/2000/svg"
 width="478.000000pt" height="214.000000pt" viewBox="0 0 478.000000 214.000000"
 preserveAspectRatio="xMidYMid meet">
<metadata>
Created by potrace 1.16, written by Peter Selinger 2001-2019
</metadata>
<g transform="translate(0.000000,214.000000) scale(0.100000,-0.100000)"
fill="#000000" stroke="none">
<path d="M4210 1610 l0 -520 -240 0 -240 0 0 379 c0 209 -3 386 -6 395 -5 14
-39 16 -270 16 l-264 0 0 -395 0 -395 -255 0 -255 0 -2 258 -3 257 -268 0
-268 0 1 -257 1 -258 -256 0 -255 0 0 379 c0 209 -3 386 -6 395 -5 14 -39 16
-270 16 l-264 0 0 -395 0 -395 -255 0 -255 0 -2 513 -3 512 -283 3 -282 2 2
-1057 3 -1058 280 0 280 0 3 523 2 522 253 -2 252 -3 3 -387 2 -388 264 0
c231 0 265 2 270 16 3 9 6 184 6 390 l0 374 253 -2 252 -3 3 -258 2 -257 268
2 267 3 3 258 2 257 253 -2 252 -3 3 -387 2 -388 264 0 c231 0 265 2 270 16 3
9 6 184 6 390 l0 374 238 -2 237 -3 5 -515 5 -515 280 0 280 0 0 1055 0 1055
-282 3 -283 2 0 -520z m530 -535 l0 -1025 -247 2 -248 3 -3 1010 c-1 556 0
1016 3 1023 3 9 63 12 250 12 l245 0 0 -1025z m-4200 -10 l0 -1025 -247 2
-248 3 -3 1010 c-1 556 0 1016 3 1023 3 9 63 12 250 12 l245 0 0 -1025z m2100
0 l0 -505 -235 0 -235 0 0 505 0 505 235 0 235 0 0 -505z"/>
</g>
</svg>
