<?xml version="1.0" standalone="no"?>
<!DOCTYPE svg PUBLIC "-//W3C//DTD SVG 20010904//EN"
 "http://www.w3.org/TR/2001/REC-SVG-20010904/DTD/svg10.dtd">
<svg version="1.0" xmlns="http://www.w3.org/2000/svg"
 width="478.000000pt" height="214.000000pt" viewBox="0 0 478.000000 214.000000"
 preserveAspectRatio="xMidYMid meet">
<metadata>
Created by potrace 1.16, written by Peter Selinger 2001-2019
</metadata>
<g transform="translate(0.000000,214.000000) scale(0.100000,-0.100000)"
fill="#000000" stroke="none">
<path d="M4215 2128 c-3 -7 -6 -242 -8 -523 l-2 -510 -242 -3 -243 -2 0 395 0
395 -264 0 c-231 0 -265 -2 -270 -16 -3 -9 -6 -186 -6 -395 l0 -379 -250 0
-250 0 -2 258 -3 257 -270 0 -270 0 -3 -258 -2 -257 -253 2 -252 3 -3 393 -2
392 -264 0 c-231 0 -265 -2 -270 -16 -3 -9 -6 -186 -6 -395 l0 -379 -250 0
-250 0 0 515 0 515 -22 5 c-13 3 -140 4 -283 3 l-260 -3 0 -1060 0 -1060 260
-3 c143 -1 270 0 283 3 l22 5 0 520 0 520 250 0 250 0 0 -374 c0 -206 3 -381
6 -390 5 -14 39 -16 270 -16 l264 0 0 390 0 390 255 0 255 0 2 -257 3 -258
270 0 270 0 3 258 2 257 250 0 250 0 0 -374 c0 -206 3 -381 6 -390 5 -14 39
-16 270 -16 l264 0 0 390 0 390 245 0 245 0 2 -517 3 -518 269 -3 c190 -2 273
1 282 9 12 10 14 182 14 1049 0 571 -3 1045 -6 1054 -5 14 -40 16 -280 16
-211 0 -276 -3 -279 -12z m525 -1053 l0 -1025 -250 0 -250 0 0 1025 0 1025
250 0 250 0 0 -1025z m-4200 -10 l0 -1025 -250 0 -250 0 0 1018 c0 560 3 1022
7 1025 3 4 116 7 250 7 l243 0 0 -1025z m3150 10 l0 -765 -235 0 -235 0 0 765
0 765 235 0 235 0 0 -765z"/>
</g>
</svg>
