<?xml version="1.0" standalone="no"?>
<!DOCTYPE svg PUBLIC "-//W3C//DTD SVG 20010904//EN"
 "http://www.w3.org/TR/2001/REC-SVG-20010904/DTD/svg10.dtd">
<svg version="1.0" xmlns="http://www.w3.org/2000/svg"
 width="478.000000pt" height="215.000000pt" viewBox="0 0 478.000000 215.000000"
 preserveAspectRatio="xMidYMid meet">
<metadata>
Created by potrace 1.16, written by Peter Selinger 2001-2019
</metadata>
<g transform="translate(0.000000,215.000000) scale(0.100000,-0.100000)"
fill="#000000" stroke="none">
<path d="M4213 2143 c-10 -4 -13 -118 -13 -524 l0 -519 -240 0 -240 0 0 395 0
395 -267 -2 -268 -3 -3 -392 -2 -393 -255 0 -255 0 0 260 0 260 -270 0 -270 0
0 -260 0 -260 -255 0 -255 0 0 395 0 395 -267 -2 -268 -3 -3 -392 -2 -393
-255 0 -255 0 0 515 0 515 -283 -2 -282 -3 0 -1055 0 -1055 280 0 280 0 3 523
2 522 255 0 255 0 2 -387 3 -388 268 -3 267 -2 0 390 0 390 255 0 255 0 2
-262 3 -263 265 0 265 0 3 263 2 262 255 0 255 0 2 -387 3 -388 268 -3 267 -2
0 390 0 390 240 0 240 0 2 -517 3 -518 280 0 280 0 0 1060 0 1060 -270 2
c-148 1 -276 -1 -282 -4z m517 -1058 l0 -1020 -245 -3 -245 -2 0 1025 0 1025
245 -2 245 -3 0 -1020z m-4195 -10 l0 -1020 -247 -3 -248 -2 0 1025 0 1025
248 -2 247 -3 0 -1020z m1045 15 c0 -418 0 -763 0 -767 0 -5 -102 -8 -227 -8
l-228 0 -3 768 -2 767 230 0 230 0 0 -760z"/>
</g>
</svg>
